<svg width="405" height="43" viewBox="0 0 405 43" fill="none" xmlns="http://www.w3.org/2000/svg">
<g clip-path="url(#clip0_1_1082)">
<path d="M20.6011 17.9406C11.0165 15.2172 9.34194 14.8111 9.34194 11.6817C9.34194 8.55222 12.4266 7.02333 15.0486 7.02333C19.0147 7.02333 22.2536 8.28944 22.5401 13.2106H30.6044C30.6044 3.655 23.3333 0 15.4232 0C8.57077 0 1.27764 4.03722 1.27764 12.4222C1.27764 20.1383 6.96231 22.4794 12.5809 24.1039C18.1995 25.7283 23.818 26.4928 23.818 30.8883C23.818 35.2839 19.4113 36.0006 16.4588 36.0006C12.0521 36.0006 8.06399 33.8744 8.06399 28.4039H-0.000314507C-0.132516 38.485 7.75552 43 16.1063 43C26.396 43 31.8383 37.3622 31.8383 29.8133C31.8383 20.5206 23.3774 18.6333 20.6011 17.9406Z" fill="white"/>
<path d="M71.543 0.955566H79.8496V42.0445H71.543V0.955566Z" fill="white"/>
<path d="M110.278 28.4995L94.37 0.955566H86.1074V41.9967H93.8853V14.5245H94.0175L109.772 41.9967H118.078V8.55223H129.095V41.9967H137.424V8.55223H148.793V0.955566H110.278V28.4995Z" fill="white"/>
<path d="M46.0715 0.955566L31.6836 41.9967H40.1445L43.097 32.8472H57.2867L60.151 41.9967H68.7441L54.6206 0.955566H46.0715ZM45.2783 26.1345L50.1918 11.0606H50.324L55.0833 26.1345H45.2783Z" fill="white"/>
<path d="M317.283 24.3667H335.637V17.3433H317.283V8.52834H337.114V0.955566H308.889V41.9967H337.532V34.4239H317.283V24.3667Z" fill="white"/>
<path d="M366.596 0.955566V28.4995L350.688 0.955566H342.447V41.9967H350.335V14.5245L366.067 41.9967H374.396V8.55223H385.413V41.9967H393.72V8.55223H405.067V0.955566H366.596Z" fill="white"/>
<path d="M296.882 22.7184V22.5751C298.777 21.7985 300.388 20.3734 301.469 18.5155C302.551 16.6576 303.044 14.4682 302.875 12.279C302.884 10.7362 302.6 9.20801 302.042 7.78885C301.484 6.3697 300.663 5.08982 299.63 4.02841C298.598 2.967 297.375 2.14665 296.038 1.61811C294.701 1.08958 293.279 0.864113 291.858 0.955661H271.455V41.9968H279.762V25.9673H288.09C292.277 25.9673 293.797 27.8545 294.414 32.1545C294.505 35.4794 294.949 38.7819 295.736 41.9968H304.065C302.567 39.6079 302.633 34.8301 302.478 32.2979C302.148 28.1651 300.98 23.8651 296.882 22.7184ZM288.84 19.5412H279.828V7.97899H288.928C292.651 7.97899 294.656 9.69899 294.656 13.6645C294.656 17.6301 292.519 19.5173 288.84 19.5173V19.5412Z" fill="white"/>
<path d="M256.956 26.4689C256.956 32.5606 255.061 35.3795 249.134 35.3795C242.392 35.3795 241.356 30.96 241.356 26.4689V0.955566H233.027V26.4689C233.027 37.625 238.954 42.9522 249.156 42.9522C259.358 42.9522 265.307 37.5533 265.307 26.4689V0.955566H257V26.4689H256.956Z" fill="white"/>
<path d="M209.032 0.955566L194.645 41.9967H203.083L206.036 32.8472H220.204L223.046 41.9967H231.683L217.559 0.955566H209.032ZM208.217 26.1345L213.153 11.0606H213.285L218.132 26.1345H208.217Z" fill="white"/>
<path d="M174.065 0.955566H165.648V41.9967H192.419V34.4239H174.065V0.955566Z" fill="white"/>
</g>
<defs>
<clipPath id="clip0_1_1082">
<rect width="405" height="43" fill="white"/>
</clipPath>
</defs>
</svg>
