<svg width="256" height="25" viewBox="0 0 256 25" fill="none" xmlns="http://www.w3.org/2000/svg">
<g clip-path="url(#clip0_1_1439)">
<path d="M12.9864 10.4306C6.94475 8.84722 5.88919 8.61111 5.88919 6.79167C5.88919 4.97222 7.83363 4.08333 9.48641 4.08333C11.9864 4.08333 14.0281 4.81944 14.2086 7.68055H19.292C19.292 2.125 14.7086 0 9.72252 0C5.40308 0 0.805856 2.34722 0.805856 7.22222C0.805856 11.7083 4.38919 13.0694 7.93086 14.0139C11.4725 14.9583 15.0142 15.4028 15.0142 17.9583C15.0142 20.5139 12.2364 20.9306 10.3753 20.9306C7.59752 20.9306 5.08363 19.6944 5.08363 16.5139H0.000300481C-0.0830329 22.375 4.88919 25 10.1531 25C16.6392 25 20.0697 21.7222 20.0697 17.3333C20.0697 11.9306 14.7364 10.8333 12.9864 10.4306Z" fill="black"/>
<path d="M45.0972 0.555664H50.3333V24.4446H45.0972V0.555664Z" fill="black"/>
<path d="M69.5139 16.5696L59.4862 0.555664H54.2778V24.4168H59.1806V8.44455H59.2639L69.1945 24.4168H74.4306V4.97233H81.3751V24.4168H86.6251V4.97233H93.7917V0.555664H69.5139V16.5696Z" fill="black"/>
<path d="M29.0416 0.555664L19.9722 24.4168H25.3055L27.1666 19.0973H36.1111L37.9166 24.4168H43.3333L34.4305 0.555664H29.0416ZM28.5416 15.1946L31.6388 6.43066H31.7222L34.7222 15.1946H28.5416Z" fill="black"/>
<path d="M200 14.1668H211.569V10.0834H200V4.95844H212.5V0.555664H194.708V24.4168H212.764V20.014H200V14.1668Z" fill="black"/>
<path d="M231.083 0.555664V16.5696L221.056 0.555664H215.861V24.4168H220.833V8.44455L230.75 24.4168H236V4.97233H242.944V24.4168H248.181V4.97233H255.333V0.555664H231.083Z" fill="black"/>
<path d="M187.139 13.2083V13.1249C188.334 12.6734 189.349 11.8449 190.031 10.7647C190.712 9.68454 191.023 8.41165 190.917 7.13883C190.922 6.24188 190.743 5.35337 190.391 4.52828C190.04 3.70319 189.522 2.95908 188.871 2.34198C188.22 1.72488 187.45 1.24793 186.607 0.940645C185.764 0.633358 184.868 0.502272 183.972 0.555498H171.111V24.4166H176.347V15.0972H181.597C184.236 15.0972 185.194 16.1944 185.583 18.6944C185.641 20.6275 185.92 22.5475 186.417 24.4166H191.667C190.722 23.0277 190.764 20.2499 190.667 18.7777C190.458 16.3749 189.722 13.8749 187.139 13.2083ZM182.069 11.3611H176.389V4.63883H182.125C184.472 4.63883 185.736 5.63883 185.736 7.94439C185.736 10.2499 184.389 11.3472 182.069 11.3472V11.3611Z" fill="black"/>
<path d="M161.972 15.389C161.972 18.9307 160.778 20.5696 157.042 20.5696C152.792 20.5696 152.139 18.0001 152.139 15.389V0.555664H146.889V15.389C146.889 21.8751 150.625 24.9723 157.056 24.9723C163.486 24.9723 167.236 21.8334 167.236 15.389V0.555664H162V15.389H161.972Z" fill="black"/>
<path d="M131.764 0.555664L122.694 24.4168H128.014L129.875 19.0973H138.805L140.597 24.4168H146.042L137.139 0.555664H131.764ZM131.25 15.1946L134.361 6.43066H134.444L137.5 15.1946H131.25Z" fill="black"/>
<path d="M109.722 0.555664H104.417V24.4168H121.292V20.014H109.722V0.555664Z" fill="black"/>
</g>
<defs>
<clipPath id="clip0_1_1439">
<rect width="255.292" height="25" fill="white"/>
</clipPath>
</defs>
</svg>
